<svg version="1.1" id="Layer_1" xmlns="http://www.w3.org/2000/svg" x="0" y="0" viewBox="0 0 1920 374" style="enable-background:new 0 0 1920 374" xml:space="preserve"><style>.st0{fill:#505050}</style><path class="st0" d="M254.9 243.8c-36.7 36.8-96.1 36.8-132.8 0-36.7-36.7-36.7-96.3 0-133.1s96.1-36.8 132.8 0l-34.8 34.8c-41.7-41.7-105 21.7-63.3 63.4 17.5 17.5 45.8 17.5 63.3 0l34.8 34.9zM742.3 161.4c-13.8-78.3-116.5-108.6-167.6-40.7-31.2 41.5-22.9 100.5 18.5 131.8 41.4 31.3 100.3 23 131.5-18.5l-39.3-29.6c-23 30.5-61 18.7-75.4-6.3h132.2l.1-36.7zm-127-12.7c19.2-23.6 52-20 68.8 0h-68.8zM1127 186.2c.3-3.1.5-6.3.5-9.4 0-3.2-.2-6.3-.5-9.4V89.2h-49.2v4.7c-13.2-7.1-28.3-11.1-44.3-11.1-51.9 0-93.9 42.1-93.9 94.1 0 52 42.1 94.1 93.9 94.1 14.3 0 27.8-3.2 39.9-8.9-5.5 13.2-18 27.1-45.8 27.1h-62.9v49.2h62.9c60.2 0 100.6-43.3 99.3-99.9l.1-52.3zm-49.2-3c-3.1 21.7-21.8 38.4-44.3 38.4-24.7 0-44.8-20.1-44.8-44.8 0-24.8 20-44.8 44.7-44.9 22.5 0 41.2 16.7 44.3 38.4l.1 12.9zM1776.9 271.3v-76.8c0-51-46.6-50.4-49.7-50.2-19.2 0-40.5 17.5-40.5 50.2v76.9h-49.2V42.8h49.2v62.3c11.7-6.4 25.1-10 39.7-10.1 56.5-1.4 99.7 39.2 99.7 99.5v76.8h-49.2zM551.1 138.4H535c-50.9 0-50.2 46.7-50.1 49.8v83.2h-49.2V189c-1.3-56.6 39.1-99.9 99.3-99.9h16.1v49.3zM1247.6 138.4h-16.1c-50.9 0-50.2 46.7-50.1 49.8v83.2h-49.2V189c-1.3-56.6 39.1-99.9 99.3-99.9h16.1v49.3zM1538.8 82.6c-51.9 0-93.9 42.1-93.9 94.1v141.8h49.2v-59.1c13.3 7.2 28.6 11.4 44.8 11.4 51.9 0 93.9-42.1 93.9-94.1-.1-52-42.1-94.1-94-94.1zm0 138.9c-24.7 0-44.8-20.1-44.8-44.8 0-24.8 20-44.8 44.8-44.9 24.7 0 44.8 20.1 44.8 44.8 0 24.9-20.1 44.9-44.8 44.9zM1346.3 83.2c-51.9 0-93.9 42.1-93.9 94.1 0 52 42 94.1 93.9 94.1 16.2 0 31.4-4.1 44.7-11.4h49.2v-82.7c0-52-42.1-94.1-93.9-94.1zm0 138.9c-24.7 0-44.8-20.1-44.8-44.8 0-24.8 20-44.8 44.8-44.9 24.7 0 44.8 20.1 44.8 44.8-.1 24.8-20.1 44.9-44.8 44.9zM841 83.2c-51.9 0-93.9 42.1-93.9 94.1 0 52 42.1 94.1 93.9 94.1 51.9 0 93.9-42.1 93.9-94.1 0-52-42.1-94.1-93.9-94.1zm0 138.9c-24.7 0-44.8-20.1-44.8-44.8 0-24.8 20-44.8 44.8-44.9 24.7 0 44.8 20.1 44.8 44.8-.1 24.8-20.1 44.9-44.8 44.9z"/><linearGradient id="SVGID_1_" gradientUnits="userSpaceOnUse" x1="251.148" y1="218.788" x2="428.002" y2="151.705"><stop offset="0" style="stop-color:#ea2b8f"/><stop offset="1" style="stop-color:#fec010"/></linearGradient><path d="M430.9 176.8c0 52.2-42.3 94.6-94.5 94.6-43.7 0-80.5-29.6-91.3-69.9 22.7-.1 40.2-.1 53.5-.1 8 12.3 22 20.4 37.8 20.4 24.9 0 45.1-20.2 45.1-45.1 0-15.7-8.1-29.6-20.3-37.7V85.4c40.1 11 69.7 47.8 69.7 91.4z" style="fill:url(#SVGID_1_)"/><linearGradient id="SVGID_00000052812576093242382910000009894092972981935247_" gradientUnits="userSpaceOnUse" x1="242.361" y1="194.32" x2="316.908" y2="166.044"><stop offset="0" style="stop-color:#19bdc6"/><stop offset=".333" style="stop-color:#1cbac3"/><stop offset=".553" style="stop-color:#1ab3bb"/><stop offset=".739" style="stop-color:#13a8b0"/><stop offset=".906" style="stop-color:#069aa0"/><stop offset="1" style="stop-color:#009096"/></linearGradient><path style="fill:url(#SVGID_00000052812576093242382910000009894092972981935247_)" d="M311.6 152.1v49.4c-3.8 0-8.1-.1-13-.1-13.4-.1-30.8-.1-53.5.1-1.5-5.6-2.5-11.4-3-17.3 0-2.6.1-6.1.7-9.9.1-.9 2.1-9.2 7.8-14.7 7.5-7.4 19-7.5 42-7.5h19z"/><linearGradient id="SVGID_00000124127199598057867230000009276512035966541978_" gradientUnits="userSpaceOnUse" x1="294.334" y1="155.952" x2="376.075" y2="124.946"><stop offset="0" style="stop-color:#0b8ccc"/><stop offset=".267" style="stop-color:#0e89c7"/><stop offset=".533" style="stop-color:#1081bb"/><stop offset=".797" style="stop-color:#0d75aa"/><stop offset="1" style="stop-color:#07699b"/></linearGradient><path style="fill:url(#SVGID_00000124127199598057867230000009276512035966541978_)" d="M361.1 139.2v12.9c0 26.7-21.1 48.4-47.6 49.5h-2V113c.2-3.1 1.1-12.1 8-19.4 4.6-4.8 9.7-6.7 13.2-7.9 8.4-2.9 16.3-2.6 22.1-1.6 2.1.4 4.1.9 6.1 1.4.2 17.9.2 35.8.2 53.7z"/></svg>